<mxfile host="app.diagrams.net" modified="2024-01-02T07:24:13.628Z" agent="Mozilla/5.0 (Windows NT 10.0; Win64; x64) AppleWebKit/537.36 (KHTML, like Gecko) Chrome/120.0.0.0 Safari/537.36" etag="N2Rjh9jfxAYs-rPxnNty" version="22.1.16" type="device" pages="2">
  <diagram name="第 1 页" id="HtZIAHviWYhA7O2Ine22">
    <mxGraphModel dx="1434" dy="738" grid="1" gridSize="10" guides="1" tooltips="1" connect="1" arrows="1" fold="1" page="1" pageScale="1" pageWidth="2336" pageHeight="1654" math="0" shadow="0">
      <root>
        <mxCell id="0" />
        <mxCell id="1" parent="0" />
        <mxCell id="mXlYfGA6NAWX4HoAFmnG-15" value="" style="rounded=0;whiteSpace=wrap;html=1;" parent="1" vertex="1">
          <mxGeometry x="30" y="90" width="810" height="435" as="geometry" />
        </mxCell>
        <mxCell id="mXlYfGA6NAWX4HoAFmnG-2" value="&lt;font style=&quot;font-size: 37px;&quot;&gt;網路&lt;/font&gt;" style="ellipse;whiteSpace=wrap;html=1;" parent="1" vertex="1">
          <mxGeometry x="270" y="160" width="160" height="90" as="geometry" />
        </mxCell>
        <mxCell id="mXlYfGA6NAWX4HoAFmnG-3" value="&lt;font style=&quot;font-size: 28px;&quot;&gt;客戶端系統&lt;/font&gt;" style="rounded=0;whiteSpace=wrap;html=1;" parent="1" vertex="1">
          <mxGeometry x="60" y="290" width="160" height="70" as="geometry" />
        </mxCell>
        <mxCell id="mXlYfGA6NAWX4HoAFmnG-4" value="&lt;font style=&quot;font-size: 24px;&quot;&gt;售票服務系統&lt;/font&gt;" style="rounded=1;whiteSpace=wrap;html=1;" parent="1" vertex="1">
          <mxGeometry x="260" y="420" width="160" height="80" as="geometry" />
        </mxCell>
        <mxCell id="mXlYfGA6NAWX4HoAFmnG-5" value="&lt;font style=&quot;font-size: 37px;&quot;&gt;服務器&lt;/font&gt;" style="rounded=0;whiteSpace=wrap;html=1;" parent="1" vertex="1">
          <mxGeometry x="530" y="180" width="60" height="290" as="geometry" />
        </mxCell>
        <mxCell id="mXlYfGA6NAWX4HoAFmnG-6" value="&lt;font style=&quot;font-size: 26px;&quot;&gt;服務器管理系統&lt;/font&gt;" style="rounded=1;whiteSpace=wrap;html=1;" parent="1" vertex="1">
          <mxGeometry x="680" y="250" width="130" height="130" as="geometry" />
        </mxCell>
        <mxCell id="mXlYfGA6NAWX4HoAFmnG-7" value="" style="endArrow=classic;html=1;rounded=0;entryX=0.967;entryY=0.479;entryDx=0;entryDy=0;entryPerimeter=0;strokeWidth=3;" parent="1" target="mXlYfGA6NAWX4HoAFmnG-5" edge="1">
          <mxGeometry width="50" height="50" relative="1" as="geometry">
            <mxPoint x="680" y="320" as="sourcePoint" />
            <mxPoint x="730" y="270" as="targetPoint" />
          </mxGeometry>
        </mxCell>
        <mxCell id="mXlYfGA6NAWX4HoAFmnG-8" value="" style="endArrow=classic;startArrow=classic;html=1;rounded=0;fontSize=14;strokeWidth=4;" parent="1" source="mXlYfGA6NAWX4HoAFmnG-4" target="mXlYfGA6NAWX4HoAFmnG-5" edge="1">
          <mxGeometry width="50" height="50" relative="1" as="geometry">
            <mxPoint x="440" y="400" as="sourcePoint" />
            <mxPoint x="490" y="350" as="targetPoint" />
          </mxGeometry>
        </mxCell>
        <mxCell id="mXlYfGA6NAWX4HoAFmnG-11" value="" style="endArrow=classic;startArrow=classic;html=1;rounded=0;strokeWidth=3;" parent="1" source="mXlYfGA6NAWX4HoAFmnG-4" target="mXlYfGA6NAWX4HoAFmnG-2" edge="1">
          <mxGeometry width="50" height="50" relative="1" as="geometry">
            <mxPoint x="360" y="350" as="sourcePoint" />
            <mxPoint x="410" y="300" as="targetPoint" />
          </mxGeometry>
        </mxCell>
        <mxCell id="mXlYfGA6NAWX4HoAFmnG-12" value="" style="endArrow=classic;startArrow=classic;html=1;rounded=0;strokeWidth=3;" parent="1" source="mXlYfGA6NAWX4HoAFmnG-3" target="mXlYfGA6NAWX4HoAFmnG-2" edge="1">
          <mxGeometry width="50" height="50" relative="1" as="geometry">
            <mxPoint x="170" y="260" as="sourcePoint" />
            <mxPoint x="220" y="210" as="targetPoint" />
          </mxGeometry>
        </mxCell>
        <mxCell id="mXlYfGA6NAWX4HoAFmnG-13" value="" style="endArrow=classic;startArrow=classic;html=1;rounded=0;strokeWidth=3;" parent="1" source="mXlYfGA6NAWX4HoAFmnG-4" target="mXlYfGA6NAWX4HoAFmnG-3" edge="1">
          <mxGeometry width="50" height="50" relative="1" as="geometry">
            <mxPoint x="170" y="450" as="sourcePoint" />
            <mxPoint x="220" y="400" as="targetPoint" />
          </mxGeometry>
        </mxCell>
      </root>
    </mxGraphModel>
  </diagram>
  <diagram id="QjzW-V3WM4iTIcKtvZKV" name="第 2 页">
    <mxGraphModel dx="1434" dy="738" grid="1" gridSize="10" guides="1" tooltips="1" connect="1" arrows="1" fold="1" page="1" pageScale="1" pageWidth="2336" pageHeight="1654" math="0" shadow="0">
      <root>
        <mxCell id="0" />
        <mxCell id="1" parent="0" />
      </root>
    </mxGraphModel>
  </diagram>
</mxfile>
